<svg width="15" height="18" viewBox="0 0 15 18" fill="none" xmlns="http://www.w3.org/2000/svg">
<path d="M1 4.098L3.162 1H11.81L13.972 4.098M1 4.098V14.941C1 15.3518 1.15185 15.7458 1.42216 16.0363C1.69246 16.3268 2.05907 16.49 2.44133 16.49H12.5307C12.9129 16.49 13.2795 16.3268 13.5498 16.0363C13.8201 15.7458 13.972 15.3518 13.972 14.941V4.098M1 4.098H13.972M10.3684 7.19601C10.3684 8.01765 10.0647 8.80564 9.5241 9.38662C8.9835 9.96761 8.25028 10.294 7.48575 10.294C6.72122 10.294 5.988 9.96761 5.4474 9.38662C4.90679 8.80564 4.60309 8.01765 4.60309 7.19601" stroke="black" stroke-width="1.5" stroke-linecap="round" stroke-linejoin="round"/>
</svg>
